<?xml version="1.0" encoding="UTF-8" standalone="no"?>
<!-- Generator: Adobe Illustrator 19.0.0, SVG Export Plug-In . SVG Version: 6.00 Build 0)  -->

<svg
   xmlns:dc="http://purl.org/dc/elements/1.1/"
   xmlns:cc="http://creativecommons.org/ns#"
   xmlns:rdf="http://www.w3.org/1999/02/22-rdf-syntax-ns#"
   xmlns:svg="http://www.w3.org/2000/svg"
   xmlns="http://www.w3.org/2000/svg"
   xmlns:sodipodi="http://sodipodi.sourceforge.net/DTD/sodipodi-0.dtd"
   xmlns:inkscape="http://www.inkscape.org/namespaces/inkscape"
   version="1.1"
   id="Layer_1"
   x="0px"
   y="0px"
   viewBox="0 0 407.436 407.436"
   style="enable-background:new 0 0 407.436 407.436;"
   xml:space="preserve"
   sodipodi:docname="right-chevron.svg"
   inkscape:version="0.92.4 (5da689c313, 2019-01-14)"><metadata
   id="metadata39"><rdf:RDF><cc:Work
       rdf:about=""><dc:format>image/svg+xml</dc:format><dc:type
         rdf:resource="http://purl.org/dc/dcmitype/StillImage" /><dc:title></dc:title></cc:Work></rdf:RDF></metadata><defs
   id="defs37" /><sodipodi:namedview
   pagecolor="#ffffff"
   bordercolor="#666666"
   borderopacity="1"
   objecttolerance="10"
   gridtolerance="10"
   guidetolerance="10"
   inkscape:pageopacity="0"
   inkscape:pageshadow="2"
   inkscape:window-width="889"
   inkscape:window-height="778"
   id="namedview35"
   showgrid="false"
   inkscape:zoom="1.1584641"
   inkscape:cx="110.99886"
   inkscape:cy="245.37547"
   inkscape:window-x="0"
   inkscape:window-y="11"
   inkscape:window-maximized="0"
   inkscape:current-layer="Layer_1" />
<polygon
   points="112.814,0 91.566,21.178 273.512,203.718 91.566,386.258 112.814,407.436 315.869,203.718 "
   id="polygon2" />
<g
   id="g4">
</g>
<g
   id="g6">
</g>
<g
   id="g8">
</g>
<g
   id="g10">
</g>
<g
   id="g12">
</g>
<g
   id="g14">
</g>
<g
   id="g16">
</g>
<g
   id="g18">
</g>
<g
   id="g20">
</g>
<g
   id="g22">
</g>
<g
   id="g24">
</g>
<g
   id="g26">
</g>
<g
   id="g28">
</g>
<g
   id="g30">
</g>
<g
   id="g32">
</g>
<path
   style="fill:#c4a22f;stroke-width:1.72642374;fill-opacity:0"
   d="M 102.7881,395.45445 92.868884,385.53523 183.93799,294.45398 275.00708,203.37272 183.92022,112.27369 92.833357,21.174663 102.81209,11.30005 112.79083,1.4254363 213.71882,102.36449 314.64681,203.30354 214.55435,303.89419 c -55.05085,55.32485 -100.48723,100.79064 -100.96974,101.03506 -0.48251,0.24445 -5.34094,-4.01921 -10.79651,-9.4748 z"
   id="path3744"
   inkscape:connector-curvature="0" /><path
   style="fill:#c4a22f;fill-opacity:0;stroke-width:1.72642374;opacity:0.514"
   d="m 102.35069,395.8424 -9.403625,-9.5219 90.172905,-90.18519 c 49.5951,-49.60184 90.17291,-90.94943 90.17291,-91.88351 0,-0.93409 -40.39832,-42.12384 -89.77404,-91.53278 C 134.14313,63.310084 93.74481,22.09845 93.74481,21.137614 c 0,-0.960836 4.281858,-5.975645 9.51524,-11.1440185 L 112.77529,0.59655243 213.60739,102.41624 314.43948,204.23593 214.02462,304.80011 c -55.22818,55.3103 -100.83234,100.56419 -101.34259,100.56419 -0.51025,0 -5.15935,-4.28487 -10.33134,-9.5219 z"
   id="path4551"
   inkscape:connector-curvature="0" /><path
   style="opacity:0;fill:#c4a22f;fill-opacity:0;stroke-width:1.72642374"
   d="m 102.35069,395.8424 -9.403625,-9.5219 90.172905,-90.18519 c 49.5951,-49.60184 90.17291,-90.94943 90.17291,-91.88351 0,-0.93409 -40.39832,-42.12384 -89.77404,-91.53278 C 134.14313,63.310084 93.74481,22.09845 93.74481,21.137614 c 0,-0.960836 4.281858,-5.975645 9.51524,-11.1440185 L 112.77529,0.59655243 213.60739,102.41624 314.43948,204.23593 214.02462,304.80011 c -55.22818,55.3103 -100.83234,100.56419 -101.34259,100.56419 -0.51025,0 -5.15935,-4.28487 -10.33134,-9.5219 z"
   id="path4553"
   inkscape:connector-curvature="0" /><path
   style="opacity:1;fill:#c4a22f;fill-opacity:0;stroke-width:1.72642374"
   d="M 102.7881,395.45445 92.868884,385.53523 183.93799,294.45398 275.00708,203.37272 183.92022,112.27369 92.833357,21.174663 102.81209,11.30005 112.79083,1.4254363 213.71882,102.36449 314.64681,203.30354 214.55435,303.89419 c -55.05085,55.32485 -100.48723,100.79064 -100.96974,101.03506 -0.48251,0.24445 -5.34094,-4.01921 -10.79651,-9.4748 z"
   id="path4555"
   inkscape:connector-curvature="0" /><path
   style="opacity:1;fill:#c4a22f;fill-opacity:1;stroke-width:1.72642374"
   d="M 102.7881,395.45445 92.868884,385.53523 183.93799,294.45398 275.00708,203.37272 183.92022,112.27369 92.833357,21.174663 102.81209,11.30005 112.79083,1.4254363 213.71882,102.36449 314.64681,203.30354 214.55435,303.89419 c -55.05085,55.32485 -100.48723,100.79064 -100.96974,101.03506 -0.48251,0.24445 -5.34094,-4.01921 -10.79651,-9.4748 z"
   id="path4557"
   inkscape:connector-curvature="0" /><path
   style="opacity:1;fill:#c4a22f;fill-opacity:1;stroke-width:0.15259574"
   d="m 102.23161,396.74766 -10.493909,-10.46964 4.538571,-4.59596 c 2.496215,-2.52778 20.743978,-20.85313 40.550578,-40.723 24.29969,-24.37731 36.11276,-36.12705 36.32179,-36.12705 0.21035,0 -12.64367,12.95352 -40.05102,40.36101 l -40.360785,40.36101 3.509025,3.52405 c 7.60417,7.63675 14.51675,14.15342 16.35449,15.41782 0.35087,0.24141 0.76291,0.44215 0.91565,0.44609 0.17151,0.004 19.39634,-19.13767 50.27776,-50.0614 49.52725,-49.59511 50.00524,-50.06812 50.54808,-50.02042 0.54485,0.0479 0.25268,0.34449 -50.43543,51.20587 -28.0409,28.13674 -51.02787,51.15626 -51.08217,51.15449 -0.0543,-0.002 -4.82098,-4.71457 -10.59263,-10.47287 z"
   id="path4559"
   inkscape:connector-curvature="0" /><path
   style="opacity:1;fill:#c4a22f;fill-opacity:1;stroke-width:0.15259574"
   d=""
   id="path4561"
   inkscape:connector-curvature="0" /><path
   style="opacity:1;fill:#c4a22f;fill-opacity:1;stroke-width:0.15259574"
   d="m 102.27272,396.69951 -10.452813,-10.3565 0.37499,-0.3993 0.374989,-0.3993 3.745096,3.71483 c 10.458248,10.37372 16.217418,15.67558 17.027678,15.67558 0.0567,0 -0.31257,-0.30601 -0.82063,-0.68002 -2.34364,-1.72529 -7.07979,-6.19833 -14.711503,-13.89422 l -4.843679,-4.8844 40.322872,-40.32266 40.32286,-40.32265 19.94855,0.0387 19.94855,0.0387 -48.39845,48.52545 -48.39844,48.52544 47.67628,-47.61803 c 26.22196,-26.18992 48.14142,-48.01902 48.70992,-48.50911 0.56851,-0.49009 1.07179,-0.85293 1.11842,-0.8063 0.17209,0.17209 -5.13001,5.58332 -26.87294,27.42608 -29.16703,29.30095 -74.44538,74.62137 -74.54248,74.61174 -0.0421,-0.004 -4.78023,-4.668 -10.52927,-10.36407 z m 12.28395,7.31974 c 0.49832,-0.50357 0.87169,-0.91558 0.82973,-0.91558 -0.042,0 -0.48401,0.41201 -0.98232,0.91558 -0.49831,0.50356 -0.87169,0.91557 -0.82973,0.91557 0.042,0 0.48401,-0.41201 0.98232,-0.91557 z"
   id="path4563"
   inkscape:connector-curvature="0" /><path
   style="opacity:1;fill:#c4a22f;fill-opacity:1;stroke-width:0.15259574"
   d="m 102.27272,396.71018 -10.452813,-10.35536 0.374903,-0.40511 0.374902,-0.40511 3.243551,3.24092 c 1.783954,1.7825 3.294449,3.19002 3.356657,3.12781 0.06221,-0.0622 -1.308316,-1.53573 -3.045609,-3.2745 l -3.158713,-3.1614 40.323492,-40.32328 40.32349,-40.32328 19.94947,0.0387 19.94947,0.0387 -41.99071,42.11643 -41.99072,42.11642 41.42023,-41.36171 c 22.78112,-22.74894 41.81674,-41.69394 42.30137,-42.09999 0.48463,-0.40605 0.91865,-0.70077 0.96448,-0.65494 0.17431,0.17431 -4.64676,5.10583 -24.28673,24.84317 -25.89356,26.02194 -77.02743,77.20434 -77.12746,77.20066 -0.0421,-0.002 -4.78022,-4.66272 -10.52926,-10.35817 z m 10.98689,8.16668 c 0,-0.0319 -0.39484,-0.35283 -0.87743,-0.71321 -1.52856,-1.14152 -4.27957,-3.63222 -7.47517,-6.76787 -1.70255,-1.67061 -3.13159,-3.00142 -3.17566,-2.95735 -0.0727,0.0728 4.08921,4.12122 6.72241,6.53911 2.87137,2.63657 4.80585,4.20615 4.80585,3.89932 z m 1.14447,-0.70502 c 0.1519,-0.16785 0.24186,-0.30519 0.19989,-0.30519 -0.042,0 -0.20058,0.13734 -0.35249,0.30519 -0.15191,0.16786 -0.24186,0.30519 -0.1999,0.30519 0.042,0 0.20059,-0.13733 0.3525,-0.30519 z m 14.74495,-14.61104 c 0.18981,-0.24203 0.18441,-0.24742 -0.0576,-0.0576 -0.14688,0.11518 -0.26704,0.23535 -0.26704,0.26704 0,0.12559 0.12531,0.0448 0.32465,-0.20943 z"
   id="path4565"
   inkscape:connector-curvature="0" /><path
   style="opacity:1;fill:#c4a22f;fill-opacity:1;stroke-width:0.15259574"
   d="m 102.27088,396.71347 -10.450973,-10.35769 0.374716,-0.40539 0.374715,-0.40539 2.448306,2.41027 c 1.346568,1.32566 2.857676,2.78714 3.358016,3.24775 l 0.909711,0.83746 -0.680817,-0.774 c -0.374449,-0.4257 -1.796132,-1.90206 -3.159295,-3.28081 l -2.478478,-2.50681 40.322829,-40.32399 40.32283,-40.324 19.94755,0.0387 19.94755,0.0387 -33.13872,33.26587 -33.13871,33.26588 32.57021,-32.5102 c 17.91363,-17.8806 32.96674,-32.84285 33.45137,-33.24943 0.48463,-0.40659 0.9212,-0.69919 0.97016,-0.65023 0.17003,0.17003 -4.39297,4.84344 -22.59309,23.13976 -23.47108,23.59516 -78.72627,78.9012 -78.82863,78.9012 -0.0431,0 -4.78122,-4.66096 -10.52925,-10.35769 z m 10.60756,7.87318 c -0.78428,-0.58035 -3.02609,-2.48522 -4.28712,-3.64279 -0.66365,-0.6092 -1.00064,-0.88096 -0.74886,-0.60389 1.01195,1.11356 5.11032,4.60321 5.39069,4.59002 0.0565,-0.003 -0.1031,-0.15716 -0.35471,-0.34334 z m -7.09875,-6.30062 c -0.87974,-0.88722 -2.14887,-2.09764 -2.82029,-2.68983 -0.67142,-0.59219 0.0153,0.13065 1.52595,1.60631 1.5107,1.47565 2.77983,2.68608 2.8203,2.68983 0.0405,0.004 -0.64622,-0.71909 -1.52596,-1.60631 z"
   id="path4567"
   inkscape:connector-curvature="0" /><path
   style="opacity:1;fill:#c4a22f;fill-opacity:1;stroke-width:0.15259574"
   d="m 102.26217,396.70846 -10.442263,-10.36271 0.388731,-0.39907 0.388731,-0.39906 1.112246,1.06898 c 0.611734,0.58795 2.082278,2.0145 3.267875,3.17014 1.868316,1.82109 1.745449,1.67403 -0.921836,-1.10336 l -3.077466,-3.20452 40.317122,-40.32399 40.31713,-40.324 19.94849,0.0387 19.94849,0.0387 -27.26539,27.39094 -27.26539,27.39093 26.84855,-26.78779 c 14.7667,-14.73329 27.17646,-27.05174 27.57725,-27.37434 0.40079,-0.32261 0.7683,-0.54696 0.81669,-0.49857 0.17209,0.17209 -3.89098,4.34478 -20.23012,20.77587 -22.68126,22.80892 -81.08952,81.26581 -81.19819,81.26581 -0.0486,0 -4.7874,-4.66322 -10.53065,-10.3627 z m 10.45572,7.7857 c -0.46625,-0.43573 -2.05241,-1.69412 -2.05241,-1.6283 0,0.0932 2.00827,1.76377 2.12025,1.76377 0.0424,0 0.0119,-0.061 -0.0678,-0.13547 z m -2.205,-1.74204 c 0,-0.0255 -0.25751,-0.28301 -0.57224,-0.57224 l -0.57223,-0.52587 0.52587,0.57224 c 0.48947,0.53262 0.6186,0.64239 0.6186,0.52587 z m -1.37337,-1.21973 c 0,-0.0249 -0.29184,-0.31677 -0.64853,-0.64854 l -0.64853,-0.6032 0.6032,0.64853 c 0.56098,0.60313 0.69386,0.71866 0.69386,0.60321 z m -2.28893,-2.13203 c 0,-0.0225 -0.70385,-0.7264 -1.56411,-1.5641 l -1.5641,-1.5231 1.52309,1.56411 c 1.41466,1.45275 1.60512,1.63348 1.60512,1.52309 z"
   id="path4569"
   inkscape:connector-curvature="0" /><path
   style="opacity:1;fill:#c4a22f;fill-opacity:1;stroke-width:0.15259574"
   d="m 102.24125,396.70585 -10.421343,-10.36532 0.420578,-0.4283 0.420578,-0.42831 2.783931,2.7442 2.783931,2.74419 -2.669587,-2.70937 -2.669588,-2.70938 40.36134,-40.36134 40.36135,-40.36135 19.95463,0.0387 19.95463,0.0387 -21.01512,21.13451 -21.01513,21.13451 20.74474,-20.68621 c 11.4096,-11.37741 21.00411,-20.88035 21.32112,-21.11764 1.05756,-0.79158 0.76477,-0.27517 -0.82906,1.46229 -3.09936,3.37866 -99.68783,100.23539 -99.95777,100.23539 -0.0593,0 -4.7975,-4.66439 -10.52923,-10.36531 z m 9.95019,7.40838 c 0,-0.0317 -0.12017,-0.15186 -0.26704,-0.26704 -0.24203,-0.18981 -0.24743,-0.18442 -0.0576,0.0576 0.19935,0.25419 0.32466,0.33502 0.32466,0.20943 z m -1.83115,-1.52596 c 0,-0.0317 -0.12017,-0.15185 -0.26704,-0.26704 -0.24203,-0.18981 -0.24743,-0.18441 -0.0576,0.0576 0.19935,0.25419 0.32466,0.33502 0.32466,0.20943 z m -3.96749,-3.65105 c 0,-0.0255 -0.2575,-0.283 -0.57223,-0.57223 l -0.57224,-0.52587 0.52587,0.57223 c 0.48947,0.53263 0.6186,0.6424 0.6186,0.52587 z"
   id="path4571"
   inkscape:connector-curvature="0" /><path
   style="opacity:1;fill:#c4a22f;fill-opacity:1;stroke-width:0.15259574"
   d="m 102.24125,396.70585 -10.421343,-10.36532 0.42045,-0.42817 0.42045,-0.42818 2.402569,2.36258 2.402569,2.36257 -2.287961,-2.32802 -2.287961,-2.32802 40.361207,-40.36121 40.36121,-40.36121 19.95365,0.0387 19.95366,0.0387 -17.7343,17.8537 -17.73429,17.85371 17.46488,-17.40347 c 9.60569,-9.57191 17.72426,-17.59848 18.04127,-17.83683 1.05927,-0.79643 0.76381,-0.27606 -0.82906,1.46014 -3.09228,3.37051 -99.68887,100.2356 -99.95777,100.2356 -0.0593,0 -4.7975,-4.66439 -10.52923,-10.36531 z"
   id="path4573"
   inkscape:connector-curvature="0" /><path
   style="opacity:1;fill:#c4a22f;fill-opacity:1;stroke-width:0.15259574"
   d="m 102.23261,396.70433 -10.412703,-10.36684 0.420129,-0.42633 0.420128,-0.42634 1.792504,1.75187 1.792503,1.75188 -1.677226,-1.71799 -1.677225,-1.71799 40.36086,-40.36086 40.36086,-40.36086 19.95738,0.0387 19.95738,0.0387 -14.45779,14.5729 -14.45779,14.57289 14.18465,-14.12178 c 7.80156,-7.76698 14.44403,-14.31719 14.76104,-14.55602 0.31702,-0.23884 0.61497,-0.39567 0.66212,-0.34852 0.17616,0.17616 -3.1311,3.59241 -16.79223,17.34557 -21.03056,21.17226 -84.53178,84.69781 -84.66536,84.69781 -0.0641,0 -4.80224,-4.66507 -10.52923,-10.36683 z"
   id="path4575"
   inkscape:connector-curvature="0" /><path
   style="opacity:1;fill:#c4a22f;fill-opacity:1;stroke-width:0.15259574"
   d="m 102.22899,396.70363 -10.409083,-10.36752 0.419463,-0.42498 0.419462,-0.42498 1.182768,1.14083 1.182767,1.14082 -1.066072,-1.10835 -1.066073,-1.10836 40.360108,-40.36011 40.36011,-40.36011 19.96385,0.0387 19.96384,0.0387 -11.79432,11.90247 -11.79432,11.90247 11.51472,-11.45133 c 10.95727,-10.89696 12.55626,-12.4311 12.75227,-12.23509 0.17756,0.17756 -2.84593,3.31033 -15.33722,15.8916 -19.8487,19.99168 -85.98647,86.15273 -86.12242,86.15273 -0.0664,0 -4.80485,-4.66539 -10.52985,-10.36753 z"
   id="path4577"
   inkscape:connector-curvature="0" /><path
   style="opacity:1;fill:#c4a22f;fill-opacity:1;stroke-width:0.15259574"
   d="m 102.22338,396.7025 -10.403473,-10.36866 0.418171,-0.42255 0.41817,-0.42255 0.726163,0.68174 0.726163,0.68175 -0.606598,-0.65215 -0.606597,-0.65215 40.358531,-40.35853 40.35853,-40.35853 19.97601,0.0387 19.97602,0.0387 -9.67227,9.76613 -9.67226,9.76613 9.38049,-9.31367 c 8.9614,-8.89755 10.42673,-10.29139 10.61805,-10.10007 0.17531,0.17531 -2.78421,3.25174 -14.04698,14.60194 -18.53676,18.68065 -87.27956,87.44239 -87.4183,87.44239 -0.0695,0 -4.80792,-4.6659 -10.52982,-10.36866 z"
   id="path4579"
   inkscape:connector-curvature="0" /><path
   style="opacity:1;fill:#c4a22f;fill-opacity:1;stroke-width:0.15259574"
   d="m 118.71649,378.50496 v -18.80007 l 57.98203,-57.95616 57.98204,-57.95616 19.75729,0.0387 19.75729,0.0387 -25.20824,25.33851 c -13.86453,13.93618 -30.94165,31.13753 -37.94915,38.22523 -10.73057,10.85337 -11.57328,11.73374 -5.34085,5.57952 4.07003,-4.01897 7.62509,-7.47911 7.90014,-7.68922 0.82651,-0.63136 0.74285,-0.25656 -0.17646,0.79055 -1.49131,1.69863 -17.10036,17.4313 -54.49512,54.92673 l -36.16519,36.26255 h -2.02189 l -2.02189,0.001 z"
   id="path4581"
   inkscape:connector-curvature="0" /><path
   style="opacity:1;fill:#c4a22f;fill-opacity:1;stroke-width:0.15259574"
   d="m 222.11291,296.4011 c 5.04082,-5.05664 18.8841,-18.96635 30.76284,-30.91047 l 21.59771,-21.71658 0.62714,0.048 0.62714,0.048 -30.67748,30.74804 c -16.87261,16.91142 -30.64052,30.62787 -30.59535,30.481 0.12563,-0.40852 -0.40134,-0.33532 -0.82387,0.11444 -0.19712,0.20982 -0.43149,0.38149 -0.52083,0.38149 -0.0893,0 3.96188,-4.13725 9.0027,-9.19389 z"
   id="path4583"
   inkscape:connector-curvature="0" /><path
   style="opacity:1;fill:#c4a22f;fill-opacity:1;stroke-width:0.07629787"
   d="m 161.97517,334.41793 v -17.98728 l 20.39081,-20.39069 20.3908,-20.3907 19.91355,0.0192 19.91355,0.0192 -7.85661,7.89683 c -16.70364,16.78914 -20.19488,20.30464 -26.14116,26.32276 -3.37923,3.42006 -6.27933,6.37268 -6.44467,6.56139 -0.16535,0.18871 1.84525,-1.77084 4.46799,-4.35455 5.85205,-5.76497 6.94306,-6.80983 7.37479,-7.06284 0.6803,-0.39869 0.50164,-0.0982 -0.76588,1.28816 -1.80003,1.96878 -5.57133,5.78023 -28.83967,29.1467 l -16.848,16.91906 h -2.77775 -2.77775 z"
   id="path4585"
   inkscape:connector-curvature="0" /><path
   style="opacity:1;fill:#c4a22f;fill-opacity:1;stroke-width:0.07629787"
   d="m 161.97517,334.41793 v -17.98728 l 20.39066,-20.39055 20.39066,-20.39055 h 19.89462 c 10.94204,0 19.89462,0.0265 19.89462,0.0589 0,0.0324 -0.29442,0.34999 -0.65427,0.70575 -1.0579,1.04589 -25.40456,25.52885 -28.86854,29.03014 -4.87196,4.92444 -5.22754,5.29284 -5.16706,5.35331 0.031,0.031 0.87053,-0.75121 1.86559,-1.73829 3.39818,-3.37095 4.47342,-4.33381 4.64644,-4.1608 0.22002,0.22002 -2.67022,3.16871 -29.86906,30.47314 l -16.96764,17.0335 h -2.77801 -2.77801 z m 40.93381,-18.6357 c 0.20667,-0.20982 0.35859,-0.38149 0.33761,-0.38149 -0.021,0 -0.20724,0.17167 -0.41391,0.38149 -0.20666,0.20982 -0.35858,0.38149 -0.3376,0.38149 0.021,0 0.20724,-0.17167 0.4139,-0.38149 z"
   id="path4587"
   inkscape:connector-curvature="0" /><path
   style="opacity:1;fill:#c4a22f;fill-opacity:1;stroke-width:0.07629787"
   d="m 161.97517,334.41793 v -17.98728 l 20.39066,-20.39055 20.39066,-20.39055 h 19.90098 c 12.00075,0 19.89087,0.0277 19.87554,0.0698 -0.014,0.0384 -5.41494,5.48892 -12.00211,12.11229 -12.61811,12.68744 -19.01061,19.13656 -18.02671,18.18637 0.32481,-0.31368 0.59056,-0.52827 0.59056,-0.47686 0,0.16365 0.158,0.10167 0.49334,-0.1935 0.56636,-0.49854 0.97433,-0.63109 0.70923,-0.23043 -0.61191,0.92479 -11.36671,11.82286 -36.44502,36.93055 l -10.34532,10.35744 h -2.7659 -2.76591 z m 41.01491,-18.73107 0.22409,-0.24797 -0.24796,0.22409 c -0.23115,0.20889 -0.28304,0.27184 -0.2241,0.27184 0.0131,0 0.12472,-0.11158 0.24797,-0.24796 z m 7.35795,-7.28126 1.33521,-1.35945 -1.27799,1.25803 c -0.7029,0.69192 -1.27799,1.22485 -1.27799,1.18429 0,-0.0406 -0.29184,0.21658 -0.64853,0.57142 -0.3567,0.35484 -0.64853,0.67531 -0.64853,0.71215 0,0.11088 1.10123,-0.92414 2.51783,-2.36644 z m 0.91557,-1.13058 c 0.35484,-0.3567 0.628,-0.64854 0.60701,-0.64854 -0.021,0 -0.32847,0.29184 -0.68331,0.64854 -0.35484,0.35669 -0.62799,0.64853 -0.60701,0.64853 0.021,0 0.32847,-0.29184 0.68331,-0.64853 z m 1.14447,-0.83928 c 0.35484,-0.35669 0.62799,-0.64853 0.60701,-0.64853 -0.021,0 -0.32847,0.29184 -0.68331,0.64853 -0.35484,0.35669 -0.628,0.64853 -0.60701,0.64853 0.021,0 0.32847,-0.29184 0.68331,-0.64853 z"
   id="path4589"
   inkscape:connector-curvature="0" /><path
   style="opacity:1;fill:#c4a22f;fill-opacity:1;stroke-width:0.07629787"
   d="m 161.97517,334.41793 v -17.98728 l 20.39066,-20.39055 20.39066,-20.39055 h 19.90098 c 11.32852,0 19.89002,0.0287 19.87554,0.0667 -0.014,0.0367 -6.47074,6.55157 -14.34835,14.47752 -7.8776,7.92595 -14.29099,14.42175 -14.25197,14.43513 0.039,0.0134 1.40289,-1.3248 3.03083,-2.97372 1.62794,-1.64892 8.1097,-8.17475 14.40391,-14.50184 l 11.44402,-11.5038 0.5729,0.002 0.57289,0.002 -14.72164,14.70488 c -10.9434,10.93096 -14.72935,14.66854 -14.75171,14.56326 -0.0242,-0.11393 -0.0758,-0.13249 -0.26363,-0.0949 -0.23864,0.0477 -0.47022,0.19245 -0.40781,0.25485 0.0191,0.0191 0.13904,-0.0269 0.26654,-0.10223 0.28172,-0.16641 0.37608,-0.10028 0.2127,0.14908 -0.59291,0.90489 -11.0432,11.49561 -35.75312,36.23356 l -11.0316,11.04412 h -2.7659 -2.7659 z m 40.98169,-18.69292 c 0.0949,-0.12102 0.0922,-0.12372 -0.0288,-0.0288 -0.0734,0.0576 -0.13352,0.11768 -0.13352,0.13352 0,0.0628 0.0626,0.0224 0.16232,-0.10471 z m 6.7744,-6.7053 c 0.97149,-0.94978 1.74819,-1.74502 1.726,-1.76721 -0.0222,-0.0222 0.0484,-0.16353 0.15676,-0.3141 0.10946,-0.15205 -0.0275,-0.0433 -0.30803,0.24454 -0.27781,0.28507 -0.48711,0.54742 -0.46512,0.58301 0.022,0.0356 -0.53483,0.5971 -1.23738,1.24783 -1.4586,1.35102 -1.83775,1.73279 -1.7209,1.73279 0.0453,0 0.87718,-0.77709 1.84867,-1.72686 z m 2.7933,-2.71668 c 0.29262,-0.30379 0.48226,-0.50979 0.42141,-0.45778 -0.19821,0.1694 -0.26396,0.0995 -0.0853,-0.0907 0.0957,-0.10188 0.21758,-0.16851 0.27083,-0.14808 0.1226,0.047 0.49944,-0.27275 0.52448,-0.44508 0.0104,-0.0714 0.0846,-0.20876 0.16502,-0.30519 0.0804,-0.0964 -0.0426,0.005 -0.27337,0.22523 -0.23075,0.22031 -0.45496,0.40057 -0.49824,0.40057 -0.0433,0 -0.17738,0.103 -0.29799,0.22889 -0.12624,0.13176 -0.17617,0.22889 -0.11766,0.22889 0.0559,0 -0.075,0.18679 -0.29091,0.41507 -0.34514,0.36493 -0.44575,0.50051 -0.37144,0.50051 0.0116,0 0.26054,-0.24856 0.55316,-0.55235 z"
   id="path4591"
   inkscape:connector-curvature="0" /><path
   style="opacity:1;fill:#c4a22f;fill-opacity:1;stroke-width:0.07629787"
   d="m 161.97517,334.41886 v -17.98821 l 20.39066,-20.39055 20.39066,-20.39055 h 19.90098 c 11.5838,0 19.89035,0.0284 19.87554,0.0679 -0.014,0.0373 -6.36457,6.4492 -14.1124,14.24863 -7.74783,7.79942 -14.18335,14.30094 -14.30117,14.44782 -0.11782,0.14687 4.17594,-4.14489 9.54167,-9.53724 5.36574,-5.39235 11.87135,-11.92605 14.45692,-14.51933 l 4.70103,-4.71506 0.55518,0.0227 0.55517,0.0227 -14.69476,14.67975 c -13.58488,13.57101 -14.70269,14.66892 -14.79971,14.53624 -0.10135,-0.13861 -0.11466,-0.13889 -0.38867,-0.008 -0.15606,0.0744 -0.26697,0.15207 -0.24647,0.17256 0.0205,0.0205 0.14269,-0.0233 0.27156,-0.0972 0.2847,-0.16339 0.38385,-0.0929 0.22033,0.15671 -0.59198,0.90346 -8.40194,8.82474 -34.91573,35.41336 l -11.79289,11.82617 -2.80395,0.02 -2.80395,0.02 z m 48.86674,-26.48952 c 0.29263,-0.29693 0.50189,-0.53988 0.46504,-0.53988 -0.0368,0 -0.002,-0.0772 0.0767,-0.17167 0.079,-0.0944 0.017,-0.0546 -0.1378,0.0884 -0.15484,0.14303 -0.26551,0.28597 -0.24594,0.31764 0.0196,0.0317 -0.38477,0.44682 -0.89855,0.92256 -1.48608,1.37606 -2.19489,2.06916 -2.19489,2.14626 0,0.0722 1.95076,-1.76413 2.93542,-2.7633 z m 1.91993,-1.94923 c -0.016,-0.0432 0.0411,-0.15571 0.12703,-0.25013 0.0859,-0.0944 0.12118,-0.17167 0.0784,-0.17167 -0.1163,0 -0.35177,0.28506 -0.302,0.3656 0.0238,0.0385 -0.0449,0.15225 -0.15258,0.25277 -0.10772,0.10052 -0.26657,0.28576 -0.353,0.41166 -0.10839,0.15786 -0.0348,0.11117 0.23707,-0.15044 0.21682,-0.20863 0.38111,-0.41464 0.36507,-0.45779 z m 0.71728,-0.57129 c 0.14529,-0.12419 0.21592,-0.22719 0.15696,-0.22889 -0.0811,-0.002 -0.0719,-0.044 0.0382,-0.17151 0.0855,-0.0991 0.0104,-0.0639 -0.18244,0.0855 -0.18028,0.13964 -0.30933,0.27235 -0.28678,0.2949 0.0226,0.0225 0.003,0.0871 -0.044,0.1434 -0.15386,0.18539 0.0488,0.10677 0.31808,-0.1234 z"
   id="path4593"
   inkscape:connector-curvature="0" /><path
   style="opacity:1;fill:#c4a22f;fill-opacity:1;stroke-width:0.07629787"
   d="m 161.97517,334.41886 v -17.98821 l 20.39066,-20.39055 20.39066,-20.39055 h 19.90098 c 11.87288,0 19.89071,0.0279 19.87554,0.0692 -0.014,0.0381 -6.15552,6.24394 -13.64785,13.79084 -7.49233,7.54691 -13.80979,13.92585 -14.03881,14.17544 -0.22901,0.24958 3.39284,-3.37266 8.04856,-8.04943 4.65573,-4.67677 11.04332,-11.0885 14.19464,-14.24829 l 5.72969,-5.74508 0.55444,0.0227 0.55445,0.0227 -14.69352,14.68058 c -13.6182,13.60622 -14.70124,14.67002 -14.79906,14.53624 -0.10202,-0.13952 -0.11505,-0.13982 -0.38928,-0.009 -0.15606,0.0744 -0.26697,0.15207 -0.24647,0.17256 0.0205,0.0205 0.14269,-0.0233 0.27156,-0.0972 0.32334,-0.18557 0.38105,-0.0803 0.14355,0.26185 -0.60961,0.8782 -8.85104,9.24012 -31.34034,31.79852 l -15.2889,15.33587 -2.80525,0.02 -2.80525,0.02 z m 48.44915,-26.08329 0.80113,-0.81958 -1.08724,1.01901 c -0.59799,0.56045 -1.08725,1.03271 -1.08725,1.04946 0,0.0817 0.65437,-0.51334 1.37336,-1.24889 z m 0.84901,-1.00333 c 0.0949,-0.12101 0.0922,-0.12371 -0.0288,-0.0288 -0.0734,0.0576 -0.13353,0.11768 -0.13353,0.13352 0,0.0628 0.0627,0.0224 0.16233,-0.10471 z m 1.43993,-1.26415 c 0,-0.10283 -0.21082,0.0885 -0.39769,0.36087 l -0.16168,0.23567 0.27968,-0.26293 c 0.15383,-0.14462 0.27969,-0.29474 0.27969,-0.33361 z m 0.26935,-0.49475 c -0.0513,-0.0513 -0.26935,0.13903 -0.26935,0.23504 0,0.0433 0.0689,0.0164 0.15306,-0.0597 0.0842,-0.0762 0.13652,-0.15507 0.11629,-0.1753 z m 0.4525,-0.12884 c 0.12425,-0.10154 0.2018,-0.20873 0.17233,-0.2382 -0.0295,-0.0295 -0.011,-0.10677 0.0411,-0.17178 0.0521,-0.065 -0.034,-0.0212 -0.19141,0.0974 -0.15736,0.11858 -0.28611,0.22589 -0.28611,0.23845 0,0.0126 -0.0208,0.0772 -0.0463,0.14354 -0.0655,0.17067 0.0475,0.14539 0.31038,-0.0694 z"
   id="path4595"
   inkscape:connector-curvature="0" /><path
   style="opacity:1;fill:#c4a22f;fill-opacity:1;stroke-width:0.07629787"
   d="m 161.97517,334.41886 v -17.98821 l 20.39066,-20.39055 20.39066,-20.39055 h 19.89462 c 10.94204,0 19.89462,0.0253 19.89462,0.0561 0,0.0309 -1.58768,1.65316 -3.52816,3.60507 -7.34366,7.38692 -14.65501,14.75331 -18.52144,18.66086 -2.20337,2.2268 1.9165,-1.88717 9.15526,-9.14216 l 13.16138,-13.1909 0.55752,0.0246 0.55751,0.0246 -14.69803,14.68562 c -12.3386,12.32819 -14.70986,14.66446 -14.77178,14.55382 -0.0406,-0.0725 -0.11497,-0.13128 -0.16534,-0.13064 -0.0584,7.7e-4 -0.0518,0.0263 0.0181,0.0706 0.0912,0.0577 0.0749,0.11964 -0.0966,0.36711 -0.60775,0.87698 -8.39466,8.77972 -31.10542,31.56809 l -15.51175,15.56477 -2.81092,0.02 -2.81092,0.02 z m 48.4873,-26.12117 c 0.20982,-0.22066 -0.0219,-0.027 -0.51501,0.43042 -0.49307,0.45738 -0.8965,0.84468 -0.8965,0.86066 0,0.0531 1.024,-0.88355 1.41151,-1.29108 z m 2.06484,-1.99547 0.2241,-0.24797 -0.24797,0.22409 c -0.13638,0.12326 -0.24797,0.23484 -0.24797,0.24797 0,0.0589 0.063,0.007 0.27184,-0.22409 z m 0.91818,-0.95372 c 0.24127,-0.22187 0.20675,-0.34614 -0.0445,-0.16036 -0.22381,0.16547 -0.29602,0.29388 -0.16528,0.29388 0.0355,0 0.12996,-0.0601 0.20982,-0.13352 z m 0.64113,-0.40057 c 0.063,-0.0407 0.0801,-0.074 0.0382,-0.074 -0.042,0 -0.1278,0.0333 -0.19074,0.074 -0.063,0.0407 -0.0801,0.074 -0.0382,0.074 0.042,0 0.1278,-0.0333 0.19074,-0.074 z"
   id="path4599"
   inkscape:connector-curvature="0" /><path
   style="opacity:1;fill:#c4a22f;fill-opacity:1;stroke-width:0.07629787"
   d="m 161.97517,334.41793 v -17.98728 l 20.39066,-20.39055 20.39066,-20.39055 h 19.90098 c 12.92897,0 19.89206,0.0261 19.87554,0.0746 -0.014,0.041 -3.66589,3.74052 -8.11532,8.2211 -4.44945,4.48058 -9.35893,9.43404 -10.90998,11.00768 -1.55104,1.57364 2.15808,-2.12875 8.24249,-8.22753 l 11.06257,-11.08871 0.55735,0.0255 0.55735,0.0255 -14.69773,14.68585 c -12.35119,12.34121 -14.70953,14.66477 -14.77162,14.55382 -0.0406,-0.0726 -0.1151,-0.13151 -0.16547,-0.13087 -0.0584,7.7e-4 -0.0518,0.0263 0.0181,0.0706 0.0913,0.0577 0.0755,0.11885 -0.094,0.36338 -0.59518,0.85886 -8.23103,8.62108 -27.98051,28.44361 -7.14937,7.17581 -14.27047,14.32588 -15.82465,15.88903 l -2.8258,2.8421 h -2.80531 -2.80532 z m 47.38098,-25.08287 c 0.0986,-0.10491 0.16203,-0.19075 0.14105,-0.19075 -0.021,0 -0.11879,0.0858 -0.21735,0.19075 -0.0986,0.10491 -0.16202,0.19074 -0.14104,0.19074 0.021,0 0.11878,-0.0858 0.21734,-0.19074 z m 0.76298,-0.68668 c 0.14236,-0.14688 0.24166,-0.26704 0.22068,-0.26704 -0.021,0 -0.15462,0.12016 -0.29698,0.26704 -0.14235,0.14687 -0.24166,0.26704 -0.22068,0.26704 0.021,0 0.15463,-0.12017 0.29698,-0.26704 z m 2.37497,-2.30801 c 0.0949,-0.12102 0.0922,-0.12371 -0.0288,-0.0288 -0.0734,0.0576 -0.13352,0.11768 -0.13352,0.13352 0,0.0628 0.0626,0.0224 0.16233,-0.10471 z m 0.91161,-1.05913 c 0.17641,-0.19148 0.1771,-0.19597 0.0148,-0.097 -0.0936,0.0571 -0.18695,0.14742 -0.20743,0.20077 -0.0546,0.14237 -0.0139,0.12042 0.19265,-0.10376 z m 0.72108,-0.39487 c -0.0235,-0.0235 -0.0851,-5e-5 -0.13681,0.0521 -0.0748,0.0754 -0.066,0.0841 0.0427,0.0427 0.0752,-0.0287 0.11759,-0.0713 0.0941,-0.0948 z"
   id="path4601"
   inkscape:connector-curvature="0" /><path
   style="opacity:1;fill:#c4a22f;fill-opacity:1;stroke-width:0.07629787"
   d="m 161.97517,334.41793 v -17.98728 l 20.39066,-20.39055 20.39066,-20.39055 h 19.90098 c 13.12745,0 19.89232,0.0258 19.87554,0.0757 -0.014,0.0416 -3.52464,3.60379 -7.80146,7.91591 l -7.77603,7.84021 7.93242,-7.91956 7.93241,-7.91955 0.55934,0.0227 0.55935,0.0227 -13.91526,13.88944 c -7.6534,7.63919 -14.20711,14.17135 -14.5638,14.51589 -0.41733,0.40313 -0.61735,0.64677 -0.56105,0.68345 0.0931,0.0606 -6.54366,6.85981 -6.66941,6.83266 -0.0378,-0.008 -0.83874,0.76435 -1.77977,1.71671 -0.94104,0.95235 -10.07006,10.13481 -20.28672,20.40545 l -18.57573,18.67391 h -2.80606 -2.80607 z m 48.75434,-25.38806 c 0.48122,-0.48259 0.85777,-0.87743 0.83679,-0.87743 -0.021,0 -0.43187,0.39484 -0.91308,0.87743 -0.48122,0.48258 -0.85777,0.87742 -0.83679,0.87742 0.021,0 0.43187,-0.39484 0.91308,-0.87742 z m -1.36362,0.28611 c 0.0949,-0.12101 0.0922,-0.12371 -0.0288,-0.0288 -0.0734,0.0576 -0.13352,0.11768 -0.13352,0.13352 0,0.0628 0.0626,0.0224 0.16233,-0.10472 z m 3.46182,-2.4606 c 0.24915,-0.25178 0.43584,-0.45779 0.41486,-0.45779 -0.021,0 -0.24201,0.20601 -0.49116,0.45779 -0.24916,0.25178 -0.43585,0.45779 -0.41486,0.45779 0.021,0 0.242,-0.20601 0.49116,-0.45779 z m 0.99667,-1.08725 0.22409,-0.24796 -0.24797,0.22409 c -0.23114,0.20889 -0.28303,0.27184 -0.22409,0.27184 0.0131,0 0.12472,-0.11158 0.24797,-0.24797 z m -0.42444,-0.47686 c 0.0986,-0.10491 0.16203,-0.19074 0.14105,-0.19074 -0.021,0 -0.11879,0.0858 -0.21735,0.19074 -0.0986,0.10491 -0.16203,0.19075 -0.14104,0.19075 0.021,0 0.11878,-0.0858 0.21734,-0.19075 z m 0.84901,-0.0191 c 0.0949,-0.12102 0.0922,-0.12371 -0.0288,-0.0288 -0.0734,0.0576 -0.13352,0.11768 -0.13352,0.13352 0,0.0628 0.0627,0.0224 0.16233,-0.10471 z m 0.20442,-0.36444 c -0.0235,-0.0235 -0.0661,0.0189 -0.0948,0.0941 -0.0414,0.10874 -0.0326,0.11751 0.0427,0.0427 0.0521,-0.0518 0.0756,-0.11333 0.0521,-0.13682 z m 0.25337,-0.017 c 0.0949,-0.12102 0.0922,-0.12371 -0.0288,-0.0288 -0.0734,0.0576 -0.13352,0.11768 -0.13352,0.13352 0,0.0628 0.0626,0.0224 0.16233,-0.10471 z"
   id="path4603"
   inkscape:connector-curvature="0" /><path
   style="opacity:1;fill:#c4a22f;fill-opacity:1;stroke-width:0.07629787"
   d="m 161.97517,334.41793 v -17.98728 l 20.39066,-20.39055 20.39066,-20.39055 h 19.90098 c 13.06833,0 19.89224,0.0259 19.87554,0.0754 -0.014,0.0414 -3.0268,3.10576 -6.69514,6.80958 l -6.66972,6.73423 6.82247,-6.80959 6.82247,-6.80958 h 0.553 c 0.30415,0 0.553,0.0294 0.553,0.0653 0,0.0359 -6.51489,6.55004 -14.47752,14.4758 -7.96264,7.92575 -14.51922,14.4799 -14.57019,14.56478 -0.051,0.0849 -0.0939,0.12437 -0.0954,0.0878 -0.001,-0.0366 -0.0538,-0.0241 -0.11632,0.0277 -0.0625,0.0519 -0.0979,0.11973 -0.0786,0.15084 0.0192,0.0311 -0.0553,0.13881 -0.16566,0.23933 -0.15936,0.14518 -0.19043,0.15449 -0.15112,0.0453 0.0313,-0.0869 0.0198,-0.11916 -0.0311,-0.0876 -0.0443,0.0274 -0.0625,0.0969 -0.0405,0.15449 0.0421,0.10973 -0.32393,0.60304 -0.39484,0.53213 -0.0225,-0.0225 0.0244,-0.11837 0.10432,-0.21305 0.12869,-0.15255 0.12115,-0.15085 -0.0663,0.0149 -0.11634,0.10289 -0.19594,0.2277 -0.17688,0.27735 0.019,0.0497 -0.0658,0.18648 -0.1885,0.30406 -0.12272,0.11758 -0.22314,0.18278 -0.22314,0.14489 0,-0.0379 -0.18725,0.11603 -0.41611,0.34205 -0.22886,0.22602 -0.3964,0.44285 -0.3723,0.48183 0.0488,0.079 -0.81143,0.98181 -0.88956,0.93352 -0.0272,-0.0168 -0.3904,0.31162 -0.80708,0.72987 -0.41669,0.41825 -0.74112,0.76839 -0.72096,0.77809 0.0374,0.018 -7.49748,7.60791 -23.64974,23.82257 -4.97448,4.9937 -11.2408,11.28541 -13.92516,13.98159 l -4.88066,4.90214 h -2.8053 -2.8053 z"
   id="path4605"
   inkscape:connector-curvature="0" /><path
   style="opacity:1;fill:#c4a22f;fill-opacity:1;stroke-width:0.07629787"
   d="m 168.00271,310.26271 c 0,-0.0353 1.10195,-1.18546 2.44879,-2.55595 1.34684,-1.37048 2.51936,-2.59018 2.60561,-2.71044 0.37098,-0.51726 -0.24564,0.0472 -2.82557,2.58634 -1.48072,1.45732 -2.7078,2.63408 -2.72686,2.61502 -0.0325,-0.0325 14.63505,-14.76935 45.5332,-45.74854 l 13.18771,-13.2223 0.41649,0.0228 0.41649,0.0228 -29.52793,29.52724 c -16.24037,16.23998 -29.52793,29.49837 -29.52793,29.46309 z"
   id="path4607"
   inkscape:connector-curvature="0" /><path
   style="opacity:1;fill:#c4a22f;fill-opacity:1;stroke-width:0.07629787"
   d="m 214.92003,304.83307 c 0,-0.0998 10.43493,-10.53386 10.48481,-10.48398 0.021,0.021 -2.32952,2.40563 -5.22333,5.29921 -2.89381,2.89359 -5.26148,5.22673 -5.26148,5.18477 z"
   id="path4609"
   inkscape:connector-curvature="0" /><path
   style="opacity:1;fill:#c4a22f;fill-opacity:1;stroke-width:0.07629787"
   d="m 232.49777,244.92058 c 3.46191,-3.47251 10.31142,-10.33931 15.22113,-15.25957 l 8.92676,-8.94593 h 0.49598 0.49599 l -15.25943,15.25958 -15.25943,15.25957 h -0.45769 -0.45768 z"
   id="path4611"
   inkscape:connector-curvature="0" /><path
   style="opacity:1;fill:#c4a22f;fill-opacity:1;stroke-width:0.07629787"
   d="m 274.82143,243.77716 -0.36485,-0.0287 9.4443,-9.49942 9.4443,-9.49942 0.022,0.74544 0.022,0.74544 -8.79616,8.79641 -8.79617,8.79641 -0.30531,-0.0138 c -0.16792,-0.008 -0.4695,-0.0266 -0.67017,-0.0424 z"
   id="path4613"
   inkscape:connector-curvature="0" /><path
   style="opacity:1;fill:#c4a22f;fill-opacity:1;stroke-width:0.07629787"
   d="m 259.43106,217.91113 c 1.53141,-1.54217 5.3418,-5.36999 8.46754,-8.50627 l 5.68317,-5.70232 -11.29096,-11.3121 -11.29095,-11.3121 0.79825,-0.0219 0.79824,-0.0219 11.18044,11.18044 11.18044,11.18044 -8.6596,8.65986 -8.6596,8.65985 h -0.49568 -0.49567 z"
   id="path4615"
   inkscape:connector-curvature="0" /><path
   style="opacity:1;fill:#c4a22f;fill-opacity:1;stroke-width:0.07629787"
   d="m 293.40274,225.43377 -0.0505,-0.71179 6.96273,-6.98188 c 3.8295,-3.84004 8.62781,-8.65572 10.6629,-10.70151 l 3.70018,-3.71962 -11.13929,-11.14234 -11.13929,-11.14234 0.41964,0.022 0.41964,0.022 11.28328,11.31033 11.28328,11.31032 -9.08469,9.13751 c -4.99658,5.02562 -10.02578,10.0761 -11.17601,11.22328 l -2.09132,2.08577 z"
   id="path4617"
   inkscape:connector-curvature="0" /><path
   style="opacity:1;fill:#c4a22f;fill-opacity:1;stroke-width:0.07629787"
   d="m 282.45737,171.10239 c -5.4689,-5.46579 -13.68788,-13.70596 -18.26439,-18.31149 l -8.32094,-8.37369 h 0.41697 0.41697 l 18.25496,18.31149 18.25495,18.31149 h -0.40753 -0.40753 z"
   id="path4619"
   inkscape:connector-curvature="0" /><path
   style="opacity:1;fill:#c4a22f;fill-opacity:1;stroke-width:0.07629787"
   d="m 233.85558,163.87797 -17.10587,-17.16222 0.0218,-0.76814 0.0218,-0.76813 17.92994,17.93035 17.92994,17.93036 h -0.84587 -0.84587 z"
   id="path4621"
   inkscape:connector-curvature="0" /><path
   style="opacity:1;fill:#c4a22f;fill-opacity:1;stroke-width:0.07629787"
   d="m 240.52194,129.15764 -15.25943,-15.25958 h 0.49596 0.49597 l 10.79612,10.81522 c 5.93787,5.94838 12.78735,12.81519 15.22108,15.25958 l 4.42495,4.44435 h -0.45761 -0.45761 z"
   id="path4623"
   inkscape:connector-curvature="0" /><path
   style="opacity:1;fill:#c4a22f;fill-opacity:1;stroke-width:0.07629787"
   d="m 193.67408,123.56337 -23.04196,-23.11471 -0.0211,-0.733418 -0.0211,-0.733415 23.08496,23.082973 23.08495,23.08297 -0.0219,0.76516 -0.0219,0.76516 z"
   id="path4625"
   inkscape:connector-curvature="0" /><path
   style="opacity:1;fill:#c4a22f;fill-opacity:1;stroke-width:0.07629787"
   d="m 208.55216,97.11253 -16.7854,-16.785532 h 0.52885 0.52884 l 15.95143,16.005159 c 8.77329,8.802843 16.29262,16.356323 16.70962,16.785533 l 0.75819,0.78037 h -0.45306 -0.45306 z"
   id="path4627"
   inkscape:connector-curvature="0" /><path
   style="opacity:1;fill:#c4a22f;fill-opacity:1;stroke-width:0.07629787"
   d="M 176.47798,65.067424 161.21855,49.807849 h 0.57953 0.57954 l 12.23844,12.26551 c 6.73113,6.746031 13.57686,13.612839 15.21273,15.259575 l 2.9743,2.994064 h -0.53284 -0.53284 z"
   id="path4629"
   inkscape:connector-curvature="0" /><path
   style="opacity:1;fill:#c4a22f;fill-opacity:1;stroke-width:0.07629787"
   d="m 150.89594,80.646868 -19.6308,-19.688379 0.0222,-0.616411 0.0223,-0.616411 19.63083,19.631337 19.63082,19.631337 -0.0223,0.673453 -0.0223,0.673456 z"
   id="path4631"
   inkscape:connector-curvature="0" /><path
   style="opacity:1;fill:#c4a22f;fill-opacity:1;stroke-width:0.07629787"
   d="m 111.40045,41.023475 -19.783746,-19.856216 0.937024,-0.939279 0.937024,-0.939279 0.611528,0.0016 0.611528,0.0016 -0.934649,0.921207 c -0.514057,0.506664 -0.934649,0.94366 -0.934649,0.971103 0,0.02744 8.65527,8.705215 19.23393,19.283939 l 19.23393,19.234043 -0.0641,0.588711 -0.0641,0.588712 z"
   id="path4633"
   inkscape:connector-curvature="0" /><path
   style="opacity:1;fill:#c4a22f;fill-opacity:1;stroke-width:0.07629787"
   d="M 145.98598,34.548275 130.72655,19.288701 h 0.6104 0.61041 l 11.67358,11.692649 c 6.42048,6.430956 13.26994,13.297765 15.22103,15.259574 l 3.54743,3.566925 h -0.57199 -0.572 z"
   id="path4635"
   inkscape:connector-curvature="0" /><path
   style="opacity:1;fill:#c4a22f;fill-opacity:1;stroke-width:0.07629787"
   d="m 103.1518,9.6840561 9.6446,-9.61120334 9.55631,9.55058624 c 5.25597,5.252823 9.55631,9.576388 9.55631,9.607925 0,0.03154 -0.26614,0.05734 -0.59143,0.05734 h -0.59143 l -8.92673,-8.928158 c -4.9097,-4.9104869 -8.96649,-8.9189863 -9.01508,-8.9077766 -0.0486,0.01121 -4.13044,4.0202973 -9.07078,8.9090836 l -8.982429,8.888702 -0.61197,0.02235 -0.61197,0.02235 z"
   id="path4637"
   inkscape:connector-curvature="0" /></svg>